<?xml version="1.0" encoding="UTF-8"?><!DOCTYPE svg  PUBLIC '-//W3C//DTD SVG 20010904//EN'  'http://www.w3.org/TR/2001/REC-SVG-20010904/DTD/svg10.dtd'><svg width="48pt" height="48pt" version="1.0" viewBox="0 0 48 48" xmlns="http://www.w3.org/2000/svg"><g transform="translate(0 48) scale(.1 -.1)"><path d="m0 430v-50h50 50v50 50h-50-50v-50z"/><path d="m380 430v-50h50 50v50 50h-50-50v-50z"/><path d="m155 401c-107-66-129-197-47-285 111-119 312-39 312 123 0 71-38 134-102 167-39 20-127 18-163-5zm105-136c19-23 8-50-20-50-19 0-26 6-28 24-5 35 26 53 48 26zm-64-60c13-14 32-25 44-25s31 11 44 25c18 19 33 25 65 25 48 0 53-15 21-68-40-65-132-92-199-57-40 20-81 72-81 101 0 22 4 24 41 24 32 0 47-6 65-25z"/><path d="m0 50v-50h50 50v50 50h-50-50v-50z"/><path d="m380 50v-50h50 50v50 50h-50-50v-50z"/></g></svg>